<svg xmlns="http://www.w3.org/2000/svg" viewBox="0 0 512 512" id="agile">
  <path d="M466.589 272.335c0-49.351-16.236-95.785-46.953-134.283-28.8-36.095-68.851-62.241-113.197-74.008V17.795C306.439 7.983 298.457 0 288.644 0h-75.037c-9.813 0-17.795 7.983-17.795 17.795v46.246c-94.3 24.979-160.15 110.615-160.15 208.294 0 64.423 28.493 124.952 78.174 166.067a7.966 7.966 0 0 0 5.096 1.837 8 8 0 0 0 5.104-14.163c-45.996-38.065-72.375-94.102-72.375-153.741 0-89.006 59.054-167.21 144.149-191.695v12.193c0 9.813 7.983 17.795 17.795 17.795h75.037c9.813 0 17.795-7.983 17.795-17.795V80.634c85.306 24.466 144.149 102.083 144.149 191.701 0 109.984-89.479 199.463-199.463 199.463H16.664a8 8 0 0 0 0 16h234.462c57.552 0 111.66-22.412 152.355-63.108 40.696-40.695 63.108-94.803 63.108-152.355zM290.439 92.833c0 .973-.822 1.795-1.795 1.795h-75.037a1.819 1.819 0 0 1-1.795-1.795V17.795c0-.973.822-1.795 1.795-1.795h75.037c.973 0 1.795.822 1.795 1.795v75.038zm212.897 386.965a8 8 0 0 1-3.076 6.305l-30.991 24.201a7.964 7.964 0 0 1-4.918 1.695 8 8 0 0 1-4.93-14.306l12.672-9.896h-81.712a8 8 0 0 1 0-16h81.712l-12.672-9.896a8 8 0 0 1-1.381-11.229 7.999 7.999 0 0 1 11.229-1.381l30.991 24.201a8.001 8.001 0 0 1 3.076 6.306zM109.641 246.13a7.998 7.998 0 0 0-5.126 7.466v37.518a8 8 0 0 0 5.126 7.466l19.112 7.357a125.993 125.993 0 0 0 12.102 29.191l-8.318 18.729a8 8 0 0 0 1.655 8.904l26.529 26.528a8 8 0 0 0 8.904 1.655l18.736-8.321a126.048 126.048 0 0 0 29.182 12.099l7.359 19.119a8 8 0 0 0 7.466 5.126h37.518a8 8 0 0 0 7.466-5.126l7.356-19.113a126 126 0 0 0 29.192-12.101l18.729 8.318a8 8 0 0 0 8.904-1.655l26.528-26.529a8 8 0 0 0 1.655-8.904l-8.321-18.735a126.012 126.012 0 0 0 12.099-29.182l19.119-7.359a8 8 0 0 0 5.126-7.466v-37.517a8 8 0 0 0-5.126-7.466l-19.113-7.357a126 126 0 0 0-12.101-29.192l8.318-18.729a8 8 0 0 0-1.655-8.904l-26.532-26.53a8.003 8.003 0 0 0-8.904-1.655l-18.736 8.321a126.012 126.012 0 0 0-29.182-12.099l-7.359-19.119a8 8 0 0 0-7.466-5.126h-37.517a8 8 0 0 0-7.466 5.126l-7.359 19.118a126.03 126.03 0 0 0-29.182 12.099l-18.736-8.321a8.001 8.001 0 0 0-8.904 1.655l-26.528 26.529a8 8 0 0 0-1.655 8.904l8.32 18.733a126.008 126.008 0 0 0-12.1 29.186l-19.115 7.359zm33.624.477a110.085 110.085 0 0 1 13.391-32.299 8.004 8.004 0 0 0 .5-7.442l-7.767-17.486 18.761-18.761 17.489 7.768a7.999 7.999 0 0 0 7.441-.5 110.154 110.154 0 0 1 32.297-13.39 8 8 0 0 0 5.614-4.909l6.868-17.844h26.532l6.869 17.844a8 8 0 0 0 5.614 4.909 110.132 110.132 0 0 1 32.297 13.39 7.999 7.999 0 0 0 7.441.499l17.489-7.767 18.761 18.76-7.764 17.482a7.998 7.998 0 0 0 .5 7.442 110.153 110.153 0 0 1 13.392 32.306 8 8 0 0 0 4.909 5.614l17.838 6.866v26.532l-17.844 6.869a8 8 0 0 0-4.909 5.614 110.136 110.136 0 0 1-13.39 32.297 8.002 8.002 0 0 0-.5 7.441l7.768 17.489-18.761 18.761-17.482-7.764a7.998 7.998 0 0 0-7.442.5 110.153 110.153 0 0 1-32.306 13.392 8 8 0 0 0-5.614 4.909l-6.866 17.838H237.86l-6.869-17.844a8 8 0 0 0-5.614-4.909 110.154 110.154 0 0 1-32.297-13.39 7.997 7.997 0 0 0-7.441-.499l-17.489 7.767-18.761-18.76 7.764-17.482a7.998 7.998 0 0 0-.5-7.442 110.117 110.117 0 0 1-13.392-32.306 7.998 7.998 0 0 0-4.909-5.613l-17.838-6.866v-26.532l17.841-6.867a8.01 8.01 0 0 0 4.91-5.617zm107.86 104.897c43.643 0 79.149-35.506 79.149-79.149s-35.506-79.149-79.149-79.149-79.149 35.506-79.149 79.149 35.506 79.149 79.149 79.149zm0-142.298c34.82 0 63.149 28.329 63.149 63.149 0 34.821-28.329 63.149-63.149 63.149s-63.149-28.329-63.149-63.149c.001-34.821 28.329-63.149 63.149-63.149zm25.781-163.079-23.001 28.435a8.003 8.003 0 0 1-6.22 2.969 7.999 7.999 0 0 1-5.656-2.343l-16.12-16.119a8 8 0 1 1 11.313-11.313l9.834 9.833 17.411-21.524a8 8 0 1 1 12.439 10.062z"></path>
</svg>
