<svg xmlns="http://www.w3.org/2000/svg" xml:space="preserve" viewBox="0 0 1920 1080" enable-background="new 0 0 1920 1080" id="business-leader">
  <path d="M1411.47 1031.93c6.9-.8 259.28-182.04 138.9-371.13s-382.68-158.6-342.97-240.98c39.71-82.38-40.12-477.73-354.4-403.91S506.19 310.17 642.7 449.69s-64.63 298.07-182.69 161.2-282.43 74.66-168.99 170.3 16.2 378.06 1120.45 250.74z" opacity=".1" fill="#2a94f4"></path>
  <g>
    <path d="M1252.1 800.43s-21.2 55.88-25.83 77.71c-4.63 21.83-4.52 43.19-4.52 43.19l-39.66-8.78s9.25-117.55 18.04-125.83c8.78-8.28 51.44-4.81 51.44-4.81l.53 18.52z" fill="#0e538c"></path>
    <path d="M1297.64 770.97s7.34 91.65 11.97 107.17c4.63 15.52 46.62 76 46.62 76l-44.85-11.46s-47.46-48.08-67.68-149.39c-14.26-71.51 35.02-52.93 53.94-22.32z" fill="#0e538c"></path>
    <path d="M1207.61 643.07s-50.55-6.35-75.14-17.3c-24.59-10.96-98.73-56.42-98.73-56.42l12.05-14.59s69.37 35.79 83.02 42.97c13.65 7.18 80.66 17.88 80.66 17.88l-1.86 27.46z" fill="#ffe3ca"></path>
    <path d="M1289.41 660.95c1.79 44.58 6.38 108.4 8.23 110.02 0 0-22.18 17.84-40.83 20.85-18.64 3.01-60.13 3.25-60.13 3.25s12.66-85.98 13.08-100.02c.42-14.04-4.97-65.89-4.97-65.89 92.85-54.57 84.56 30.27 84.62 31.79z" fill="#ffbe55"></path>
    <path d="m1239.04 602.42.12 8.9c.09 6.54 5.59 11.7 12.13 11.37l1.85-.09c6.32-.32 11.21-5.68 10.94-12.01l-.38-9.11c-.3-7.03-6.76-12.16-13.68-10.85l-1.59.3c-5.5 1.04-9.46 5.89-9.39 11.49z" fill="#fcd2b1"></path>
    <path d="M1219.91 549.27s-10.79 30.59-1.28 47.86 44.59 10.87 50.58-13.14c13.18-52.86-34.16-50.47-49.3-34.72z" fill="#ffe3ca"></path>
    <path d="M1243.58 649.45s-33.29 7.7-70.54-8.01l7.29-32.43 58.83 2.32c0-.01 2 17.4 4.42 38.12z" fill="#ffbe55"></path>
    <path d="M1282.89 619.58c-1.62 1.65 20.35 73.2-8.05 98.07-15.66 13.71-89.33 33.22-89.33 33.22-.65.87-5.18 2.18-9.75 3.3-7.08 1.74-14.55-.5-19.52-5.83-.37-.4-.71-.77-1.01-1.1a4.724 4.724 0 0 1-1.17-3.79 7.616 7.616 0 0 1 6.09-6.47c1.37-.27 2.77-.48 3.9-.52 6.82-.22 12.21 2.56 18.95 2.32l4.24-.15s59.44-24.38 67.38-30.52c24.09-18.64 12.59-51.07 14.7-64.23l13.57-24.3z" fill="#fcd2b1"></path>
    <path d="M1199.53 741.22s-12.87-7.79-20.99-8.22c-3.68-.19-9.85-2.32-11.78-4.24-1.93-1.93-3.47 5.54-.19 6.7 3.28 1.16 11.41 2.99 9.56 7.11l23.4-1.35z" fill="#fcd2b1"></path>
    <path d="M1268.29 612.95s29.35-2.06 32.35 63.92l-37.38 10.3s-28.19-38.89 5.03-74.22z" fill="#ffbe55"></path>
    <path d="M1034.96 572.03s6.57.75 16.82-.26c10.25-1.02 4.77-4.92 4.77-4.92l-6.11-8.18s-5.37-13.19-12.12-17.34c-1.58-.97-2.18-1.79-3.34-3.16-1.05-1.24-13.48-2.57-2.46 5.96 2.89 2.24 2.49 4.1.78 4.12s-13.47-10.01-17.66-7.57c-11.6 6.78-4.4 21.47 1.6 24.42 5.83 2.85 17.72 6.93 17.72 6.93z" fill="#ffe3ca"></path>
    <path d="M1275.63 541.04c-.32.73-1.33.81-1.72.12-3.14-5.6-13.89-21.67-31.88-17.56-18.84 4.31-28.2 17.8-33.17 15.2-.77-.41-1.66.26-1.41 1.09.89 2.97 3.17 6.64 9.04 5.79.54-.08 1.04.34 1.07.89.13 2.32-.3 7.58-6.84 7.2-.79-.05-1.32.8-.9 1.47 1.2 1.91 3.74 4.52 8.01 2.63.25-.11.44-.33.53-.59.62-1.84 3.78-9.44 13.13-8.74.35.03.66.27.81.59.6 1.34 3.08 4.88 12.83 6.7 11.41 2.13 14.68 10.59 9.62 16.41-.49.56-.2 1.45.53 1.58 2.4.4 6.8.31 9.27-4.77 3.51-7.23 8.88-.21 6.41 3.93-2.26 3.77-1.6 15.63-7.27 21.75-.58.62-.07 1.64.78 1.59 2.99-.2 7.83-1.13 10.43-4.95 3.93-5.79 14.88-13.84 11.36-29.75-3.24-14.69-6.2-20.4-.83-24.11.65-.45.57-1.44-.17-1.71-2.4-.86-6.76-1.29-9.63 5.24z" fill="#0b4870"></path>
  </g>
  <g>
    <path d="M868.36 436.18s38.5 53.47 58.35 71.65c17.22 15.78 62.29 37.11 77.26 45.04l3.58 1.89 6.28-12.35s-60.47-42.36-72.5-52.03c-12.02-9.66-46.73-62.3-46.73-62.3l-26.24 8.1zM839.36 419.21c-1.97-1.21-86.93 12.44-106.09 4.32-19.16-8.12-61.57-70.41-61.57-70.41l-13.12-7.96a32.295 32.295 0 0 1-12.16-13.22l-2.78-5.58c-2.95-5.93 1.38-12.89 8.01-12.86l12.17 3.72a28.775 28.775 0 0 1 19.39 20.07l1.1 4.1s50.45 53.54 59.01 58.78c8.55 5.24 50.35-7.13 63.64-8.03l32.4 27.07z" fill="#b97a59"></path>
    <path d="M718.72 607.73s88.54-7.84 128.62-83.43l-52.43 3.66s-101.47 56.32-109.19 67.11 13.89 146.04 13.89 146.04h21.22l-2.11-133.38z" fill="#0e538c"></path>
    <path d="M794.91 527.96s11.58 135.21 37.81 186.91c26.24 51.7 59.42 124.24 59.42 124.24l25.79-6.95-57.43-151.25s-6.86-72.54-5.4-81.8c1.46-9.26 15.21-46.27 1.32-74.82l-61.51 3.67z" fill="#0e538c"></path>
    <path d="m766.94 398.81 2.99 32.23s24.51 3.4 24.21 4.89c-9.06 43.69-24.01 105.9-26.1 107.19 0 0 23.64 2.14 41.54 8.16s52.09 23.32 52.09 23.32 3.59-78.09 5.48-92c1.88-13.92 15.67-64.19 15.67-64.19-47.2-46.35-115.88-19.6-115.88-19.6z" fill="#ffbe55"></path>
    <path d="m853.39 386.41-1.57 8.76c-1.16 6.44-7.43 10.63-13.82 9.23l-1.81-.4c-6.19-1.35-10.13-7.44-8.83-13.64l4.6-21.99 14.05 5.15c5.26 1.95 8.37 7.38 7.38 12.89z" fill="#a86d52"></path>
    <path d="M884.23 342.93s-3.38 36.06-18.09 49.19-44.36-9.03-42.05-33.66c5.12-54.25 51.08-35.42 60.14-15.53z" fill="#b97a59"></path>
    <path d="M858.1 400.39s31.33 13.64 51.88 48.45l-25.18 21.7-28.39-27.2c.01 0-8.71-24.88 1.69-42.95z" fill="#ffbe55"></path>
    <path d="M334.51 1075.25S482.28 757.07 656.29 757.3c201.54.26 56.72 109.96 259.28 115.75 202.56 5.79 602.97 125.93 602.97 125.93l86.81 76.26H334.51z" fill="#cce9ff"></path>
    <path d="m703.66 741.1-1.49.87c-8.4 4.9-17.53 8.37-26.97 10.68-19.52 4.76-21.4 14.31-21.4 14.31-.73 1.32 5.35 5.04 6.85 4.92l31.89-6.94a54.918 54.918 0 0 1 16.62-1.04l8.98.8c4.17-.08 7.21-3.97 6.27-8.04l-3.58-15.56h-17.17zM892.14 839.1s-7.33 26.72-27.59 24.99c0 0-11.17 17.85 19.1 13.31 11.58-1.74 14.02-16.78 38.2-13.02 6.68 1.04 10.42-6.94 10.42-6.94 2.52-8.65-4.17-13.66-10.11-20.44l-4.23-4.84-25.79 6.94zM619.88 762.48l-10.16-.75 63.48-600.57 10.15.75z" fill="#0b4870"></path>
    <path d="M673.08 167.14s-80.4-61.23-112.75-20.42c-42.7 53.86-71.56 33.49-86.45 17.09 0 0 13.08 32.68-41.94 84.56 0 0 72.76 53.19 113.36 20.39 40.59-32.8 109 3.92 117.32 29.32l10.46-130.94z" fill="#ffbe55"></path>
    <path d="M1008.39 557.75s-5.24-4.03-11.9-11.9c-6.65-7.86 0-6.86 0-6.86l10.08-1.63s13.03-5.74 20.77-4.02c1.81.4 2.81.23 4.6.05 1.61-.16 11.47 7.53-2.38 5.99-3.63-.4-4.64 1.21-3.43 2.42 1.21 1.21 16.64 2.19 17.95 6.86 3.61 12.94-11.79 18.48-18.15 16.42-6.17-1.99-17.54-7.33-17.54-7.33z" fill="#b97a59"></path>
    <path d="M837.43 332.62s5.71 17.54 25.97 15.23c20.26-2.32 17.78 12.8 17.78 12.8s17.05-15.28 3.43-28.02c-13.63-12.75-18.8-29.33-47.18-15.25-28.38 14.08-21.61 40.52-13.91 51.12l2.42 2.43c1.51 1.51 4.03 1.22 5.14-.6l.01-.02c.66-1.08.64-2.43-.04-3.5-1.98-3.13-5.51-9.9-2.16-13.86 2.05-2.42 3.64-1.91 4.77-.65 1.85 2.08 4.73 2.89 7.3 1.81l.2-.08c0-.01 9.6-9.82-3.73-21.41z" fill="#0b4870"></path>
  </g>
</svg>
