<svg xmlns="http://www.w3.org/2000/svg" viewBox="0 0 512 512" id="deal">
  <path d="M235.13 97.86a12.53 12.53 0 0 0 17.7 0l38.41-38.41a7.5 7.5 0 1 0-10.61-10.61L244 85.49l-12.63-12.61a7.5 7.5 0 0 0-10.61 10.61ZM256 150.24a75.12 75.12 0 1 0-75.12-75.12A75.21 75.21 0 0 0 256 150.24ZM256 15a60.12 60.12 0 1 1-60.12 60.12A60.19 60.19 0 0 1 256 15Zm243.24 222.63-77.62 76.46a19.13 19.13 0 0 1-13.62 5.66 19.19 19.19 0 0 1-13.66-5.66l-76.48-76.48a19.15 19.15 0 0 1-4.59-7.32 1.75 1.75 0 0 0-.12-.32 19.18 19.18 0 0 1 4.69-19.66l192-190A7.5 7.5 0 0 0 499.22 9.6l-192 190.07a34.53 34.53 0 0 0-10 25.56h-8.13a48.37 48.37 0 0 0-36 16.11l-.89 1a97.4 97.4 0 0 0-38.43-9.91 34.3 34.3 0 0 0-9-32.75L12.79 8.46A7.5 7.5 0 0 0 2.21 19.08l192 191.2a19.36 19.36 0 0 1 0 27.33l-76.48 76.48a19.36 19.36 0 0 1-27.32 0l-77.6-77.86a7.5 7.5 0 0 0-10.62 10.58l77.57 77.89a34.25 34.25 0 0 0 24.27 10 35.08 35.08 0 0 0 8.46-1.06 98.63 98.63 0 0 0 1.34 12.1 29.73 29.73 0 0 0-8.06 5.75l-14.71 14.74a29.85 29.85 0 0 0 21.1 51c.61 0 1.21 0 1.82-.06 0 .6-.06 1.2-.06 1.81a29.84 29.84 0 0 0 29.84 29.85c.62 0 1.23 0 1.84-.06a29.82 29.82 0 0 0 29.77 31.67c.61 0 1.22 0 1.83-.07a29.84 29.84 0 0 0 50.88 22.93l9.12-9.12 9.12 9.12a29.85 29.85 0 0 0 50.95-21.11c0-.61 0-1.22-.06-1.83.6 0 1.21.06 1.81.06a29.82 29.82 0 0 0 29.85-29.83q0-.93-.06-1.83c.61 0 1.21.06 1.82.06a29.82 29.82 0 0 0 29.85-29.84c0-.61 0-1.22-.06-1.83.6 0 1.21.06 1.81.06a29.84 29.84 0 0 0 21.11-50.94l-7.49-7.49a98.53 98.53 0 0 0 22.95-25.23 34.62 34.62 0 0 0 9.17 1.24 34 34 0 0 0 24.21-10l77.57-76.42a7.5 7.5 0 0 0-10.52-10.68ZM112.16 402.19a14.85 14.85 0 0 1-10.5-25.35l14.72-14.72a14.85 14.85 0 1 1 21 21l-14.72 14.72a14.76 14.76 0 0 1-10.5 4.35Zm42.1 27.25a14.85 14.85 0 0 1-21-21L148 393.73a14.85 14.85 0 1 1 21 21Zm31.61 31.61a14.85 14.85 0 0 1-21 0l-5.3 5.3 5.3-5.3a14.87 14.87 0 0 1 0-21l14.72-14.72a14.85 14.85 0 0 1 21 21Zm46.32 16.88-14.72 14.72a14.84 14.84 0 0 1-21 0l-5.31 5.3 5.3-5.3a14.88 14.88 0 0 1 0-21l14.72-14.71a14.85 14.85 0 1 1 21 21Zm144.89-90.59a14.85 14.85 0 0 1-25.34 10.5l-48-48a7.5 7.5 0 0 0-10.61 10.61l48 48a14.85 14.85 0 0 1-21 21l-48-48A7.5 7.5 0 1 0 261.48 392l48 48a14.85 14.85 0 0 1-21 21l-48-48a7.5 7.5 0 0 0-10.61 10.6l48 48a14.85 14.85 0 0 1-21 21l-9.71-9.71a29.85 29.85 0 0 0-25.52-45.35c-.61 0-1.21 0-1.82.06 0-.61.06-1.21.06-1.82A29.84 29.84 0 0 0 190.09 406c-.61 0-1.22 0-1.82.06 0-.6.06-1.21.06-1.81a29.84 29.84 0 0 0-29.85-29.85c-.61 0-1.21 0-1.81.06 0-.6.06-1.21.06-1.82a29.87 29.87 0 0 0-28.19-29.8 81.89 81.89 0 0 1-1.07-17.34l.82-.79 76.49-76.48c.27-.27.52-.55.78-.83a82 82 0 0 1 36.15 6.6L200 300.6a21.63 21.63 0 0 0 .82 29.71 38.88 38.88 0 0 0 54.93 0L291 295.1l2.76 2.76 79 79a14.72 14.72 0 0 1 4.32 10.48Zm2.35-52.7a85.1 85.1 0 0 1-14.27 13.41L335 317.9l-37.63-37.63-1.08-1.07a7.49 7.49 0 0 0-10.6 0l-40.51 40.5a23.87 23.87 0 0 1-33.71 0 6.61 6.61 0 0 1-.25-9.1l53-59.26a33.37 33.37 0 0 1 24.85-11.11h12.19a34 34 0 0 0 6 8l76.47 76.48c.6.59 1.21 1.15 1.84 1.7a86.62 86.62 0 0 1-6.14 8.23Z"></path>
</svg>
