<svg xmlns="http://www.w3.org/2000/svg" viewBox="0 0 64 64" id="secure-transaction">
  <path d="M56.89 32.33h-38.1c-1.53 0-2.78-1.25-2.78-2.78V4.99a2.78 2.78 0 0 1 2.78-2.78h38.1c1.53 0 2.78 1.25 2.78 2.78v24.56a2.78 2.78 0 0 1-2.78 2.78zM18.79 4.15c-.46 0-.84.38-.84.84v24.56c0 .46.38.84.84.84h38.1c.46 0 .84-.38.84-.84V4.99c0-.47-.38-.84-.84-.84h-38.1z"></path>
  <path d="M58.7 14.56H16.98c-.54 0-.97-.43-.97-.97s.43-.97.97-.97H58.7c.54 0 .97.43.97.97s-.43.97-.97.97zm0-4.36H16.98c-.54 0-.97-.43-.97-.97s.43-.97.97-.97H58.7c.54 0 .97.43.97.97s-.43.97-.97.97zm-7.32 16.99c-1.89 0-3.42-1.53-3.42-3.42s1.53-3.42 3.42-3.42 3.42 1.53 3.42 3.42c0 1.88-1.53 3.42-3.42 3.42zm0-4.91c-.82 0-1.48.66-1.48 1.48s.66 1.48 1.48 1.48 1.48-.66 1.48-1.48c0-.81-.66-1.48-1.48-1.48z"></path>
  <path d="M47.53 27.19a3.425 3.425 0 0 1 0-6.85c1.05 0 2.05.49 2.7 1.32a.97.97 0 0 1-.17 1.36.97.97 0 0 1-1.36-.17c-.28-.36-.71-.57-1.17-.57-.82 0-1.48.66-1.48 1.48s.66 1.49 1.48 1.49c.45 0 .89-.21 1.17-.57a.97.97 0 0 1 1.36-.17c.42.33.5.94.17 1.36-.65.83-1.66 1.32-2.7 1.32zm-15.89-7.33H21.5c-.54 0-.97-.43-.97-.97s.43-.97.97-.97h10.14c.54 0 .97.43.97.97s-.43.97-.97.97zm2.16 3.95H21.5c-.54 0-.97-.43-.97-.97s.43-.97.97-.97h12.3a.97.97 0 0 1 0 1.94zM39.19 50.07h-8.07c-.54 0-.97-.43-.97-.97s.43-.97.97-.97h8.07c.37 0 .71-.07 1.02-.21.78-.35 1.34-1.07 1.45-1.87.01-.05.02-.11.04-.16.02-.14.02-.29 0-.43a2.454 2.454 0 0 0-2.39-2.23l-8.47-.26c-.7-.01-1.42-.17-2.15-.47a.467.467 0 0 1-.1-.05l-7.92-4.36c-.42-.23-.88-.35-1.34-.35h-8.3c-.54 0-.97-.43-.97-.97s.43-.97.97-.97h8.3c.79 0 1.58.21 2.28.6l7.86 4.33c.48.19.96.3 1.41.31l8.49.26c2.2.08 4.03 1.78 4.25 3.95.05.35.03.75-.04 1.12l-.03.11c-.25 1.4-1.21 2.63-2.55 3.23-.55.23-1.17.36-1.81.36zm3.44-3.9z"></path>
  <path d="M33.23 61.79c-.47 0-.93-.04-1.4-.11-.05-.01-.1-.02-.15-.04l-17.04-5.6c-.27-.09-.57-.14-.87-.14h-2.74c-.54 0-.97-.43-.97-.97s.43-.97.97-.97h2.74c.51 0 1.01.08 1.48.24l16.96 5.57c1.27.19 2.56.02 3.72-.49l24.89-11.04c.51-.23.91-.66 1.12-1.23.24-.71.13-1.51-.3-2.17-.52-.79-1.5-1.19-2.46-1l-16.31 3.28a.98.98 0 0 1-.93-.25.975.975 0 0 1-.01-1.37c.14-.14.32-.24.51-.28l16.35-3.29c1.73-.35 3.53.39 4.47 1.84.76 1.17.95 2.58.5 3.88-.4 1.09-1.17 1.91-2.16 2.36L36.71 61.06c-1.1.48-2.28.73-3.48.73z"></path>
  <path d="M11.02 58.01H2.91c-.5 0-.92-.38-.97-.88L0 35.04a1 1 0 0 1 .25-.74c.18-.2.44-.31.71-.31h10.05c.54 0 .97.43.97.97v22.09c.01.53-.42.96-.96.96zM3.8 56.08h6.25V35.92H2.03L3.8 56.08z"></path>
</svg>
